<svg width="100" height="32" viewBox="0 0 100 32" fill="none" xmlns="http://www.w3.org/2000/svg">
<g clip-path="url(#clip0)">
<path d="M52.7025 7.83911C52.7025 8.96353 51.7965 9.86894 50.6721 9.86894C49.5476 9.86894 48.6422 8.96353 48.6422 7.83911C48.6422 6.71468 49.5167 5.80927 50.6721 5.80927C51.8283 5.84047 52.7025 6.74619 52.7025 7.83911V7.83911ZM44.3323 11.9306V12.4304C44.3323 12.4304 43.3645 11.1806 41.3032 11.1806C37.8994 11.1806 35.2443 13.7729 35.2443 17.3643C35.2443 20.9248 37.8682 23.548 41.3032 23.548C43.3957 23.548 44.3323 22.2676 44.3323 22.2676V22.7983C44.3323 23.0482 44.5202 23.2351 44.7698 23.2351H47.2991V11.4919H44.7698C44.5202 11.4929 44.3323 11.7119 44.3323 11.9306V11.9306ZM44.3323 19.4568C43.8644 20.1441 42.9271 20.7376 41.803 20.7376C39.8044 20.7376 38.2737 19.4883 38.2737 17.3643C38.2737 15.2405 39.8044 13.9913 41.803 13.9913C42.8962 13.9913 43.8956 14.6159 44.3323 15.2717V19.4568ZM49.1732 11.4929H52.1712V23.236H49.1732V11.4929V11.4929ZM93.9584 11.1803C91.897 11.1803 90.9286 12.4301 90.9286 12.4301V5.84047H87.9307V23.236H90.4606C90.7105 23.236 90.8974 23.0173 90.8974 22.7986V22.2679C90.8974 22.2679 91.8658 23.5483 93.9266 23.5483C97.331 23.5483 99.9855 20.9257 99.9855 17.3652C99.9855 13.8047 97.331 11.1803 93.9584 11.1803V11.1803ZM93.4586 20.706C92.3026 20.706 91.3972 20.1133 90.9286 19.4256V15.2405C91.3972 14.6159 92.3965 13.9601 93.4586 13.9601C95.4572 13.9601 96.9875 15.2093 96.9875 17.3331C96.9875 19.4568 95.4575 20.706 93.4586 20.706ZM86.3695 16.2717V23.2672H83.3709V16.6149C83.3709 14.6789 82.7463 13.8977 81.0609 13.8977C80.1555 13.8977 79.2182 14.3663 78.6239 15.0536V23.2363H75.6266V11.4932H77.9993C78.2492 11.4932 78.4367 11.7119 78.4367 11.9306V12.4304C79.3112 11.5244 80.4665 11.1806 81.6218 11.1806C82.9338 11.1806 84.027 11.5559 84.9015 12.3053C85.9629 13.1798 86.3695 14.3039 86.3695 16.2717V16.2717ZM68.3487 11.1803C66.288 11.1803 65.3196 12.4301 65.3196 12.4301V5.84047H62.3216V23.236H64.8509C65.1008 23.236 65.2883 23.0173 65.2883 22.7986V22.2679C65.2883 22.2679 66.2568 23.5483 68.3175 23.5483C71.722 23.5483 74.3764 20.9257 74.3764 17.3652C74.4076 13.8044 71.7532 11.1803 68.3487 11.1803V11.1803ZM67.8489 20.706C66.6936 20.706 65.7882 20.1133 65.3196 19.4256V15.2405C65.7882 14.6159 66.7875 13.9601 67.8489 13.9601C69.8481 13.9601 71.3781 15.2093 71.3781 17.3331C71.3781 19.4568 69.8481 20.706 67.8489 20.706ZM59.7292 11.1803C60.6346 11.1803 61.1033 11.3369 61.1033 11.3369V14.1161C61.1033 14.1161 58.6048 13.2728 57.0436 15.0533V23.2669H54.045V11.4929H56.575C56.8249 11.4929 57.0118 11.7116 57.0118 11.9303V12.4301C57.5746 11.774 58.7926 11.1803 59.7292 11.1803V11.1803ZM28.5926 22.174C28.4366 21.7993 28.2803 21.3934 28.1243 21.0496C27.8741 20.4877 27.6241 19.9563 27.4061 19.4568L27.3749 19.4256C25.2196 14.7407 22.909 9.99405 20.4726 5.30977L20.379 5.12195C20.1228 4.63601 19.8731 4.14666 19.6299 3.65402C19.3173 3.0915 19.0053 2.4987 18.5055 1.93618C17.5062 0.686956 16.0695 -0.000366211 14.5394 -0.000366211C12.9776 -0.000366211 11.5724 0.68696 10.5422 1.87347C10.0736 2.43537 9.72974 3.02879 9.41775 3.59131C9.17401 4.08364 8.92429 4.57298 8.66865 5.05924L8.57474 5.24706C6.1699 9.93133 3.82776 14.6783 1.67282 19.3629L1.64131 19.425C1.42291 19.9254 1.17269 20.4561 0.922786 21.0177C0.766789 21.3615 0.610792 21.7362 0.454795 22.1421C0.0485795 23.2975 -0.076536 24.3907 0.0800848 25.5154C0.42359 27.8579 1.98481 29.8247 4.14006 30.6998C4.95218 31.0436 5.7955 31.1996 6.66971 31.1996C6.91961 31.1996 7.23161 31.1684 7.48183 31.1369C8.51266 31.0121 9.57437 30.6689 10.6052 30.0755C11.8856 29.357 13.1036 28.3268 14.4777 26.8277C15.8517 28.3268 17.1009 29.357 18.3501 30.0755C19.3813 30.6689 20.4427 31.0121 21.4732 31.1369C21.7231 31.1688 22.0357 31.1996 22.2856 31.1996C23.1601 31.1996 24.0343 31.0436 24.815 30.6998C27.0014 29.8247 28.5314 27.8267 28.8752 25.5154C29.1233 24.4225 28.9985 23.3299 28.5926 22.174V22.174ZM14.5079 23.7979C12.8213 21.6742 11.7281 19.6755 11.3537 17.9895C11.1977 17.271 11.1662 16.6464 11.2601 16.0842C11.3222 15.5844 11.51 15.1469 11.7599 14.7722C12.3533 13.9295 13.3526 13.3982 14.5082 13.3982C15.6642 13.3982 16.6947 13.898 17.2569 14.7722C17.5068 15.1469 17.694 15.5847 17.757 16.0842C17.8503 16.6467 17.8191 17.3022 17.6631 17.9895C17.2872 19.6443 16.1939 21.6433 14.5079 23.7979ZM26.9683 25.2658C26.7499 26.8898 25.6567 28.2956 24.1267 28.9202C23.3773 29.2322 22.5649 29.3261 21.7534 29.2322C20.9727 29.1383 20.1915 28.8884 19.38 28.4204C18.2556 27.7952 17.1315 26.8277 15.8196 25.3906C17.8806 22.8613 19.1298 20.5497 19.5984 18.489C19.8171 17.5206 19.8486 16.6464 19.7544 15.8339C19.6299 15.0533 19.3485 14.3348 18.9114 13.7102C17.9427 12.3044 16.3184 11.4929 14.5076 11.4929C12.6968 11.4929 11.0726 12.3362 10.1044 13.7102C9.66734 14.3348 9.38592 15.0533 9.26113 15.8339C9.13633 16.6464 9.16722 17.5518 9.41712 18.489C9.88542 20.5497 11.1659 22.8922 13.1957 25.4218C11.9153 26.8586 10.7596 27.827 9.63521 28.4516C8.82309 28.9202 8.0428 29.1701 7.26219 29.2634C6.41918 29.3573 5.60675 29.2322 4.88854 28.9514C3.35852 28.3268 2.26529 26.921 2.0469 25.297C1.9533 24.5164 2.01539 23.7358 2.32801 22.8613C2.42129 22.5487 2.57791 22.2367 2.73391 21.862C2.95261 21.3622 3.2019 20.8308 3.45212 20.3001L3.48363 20.2381C5.63826 15.5844 7.9492 10.8374 10.354 6.21549L10.4476 6.02767C10.6979 5.55968 10.9478 5.05986 11.1974 4.59125C11.4473 4.09144 11.7281 3.62282 12.0719 3.2166C12.7277 2.46782 13.6019 2.06129 14.5703 2.06129C15.5388 2.06129 16.413 2.46782 17.0688 3.2166C17.4126 3.62376 17.6934 4.09237 17.9433 4.59125C18.1935 5.05986 18.4434 5.55968 18.6927 6.02767L18.7866 6.21549C21.1548 10.8566 23.435 15.542 25.6261 20.2693V20.3005C25.8764 20.8009 26.0948 21.3625 26.3447 21.8629C26.5007 22.237 26.657 22.549 26.7506 22.8616C26.9998 23.6728 27.0934 24.454 26.9683 25.2658V25.2658Z" fill="#FF5A5F"/>
</g>
<defs>
<clipPath id="clip0">
<rect width="100" height="31.2" fill="white"/>
</clipPath>
</defs>
</svg>
