<svg width="100" height="21" viewBox="0 0 100 21" fill="none" xmlns="http://www.w3.org/2000/svg">
<g clip-path="url(#clip0)">
<path d="M12.1046 0C14.2329 0.349412 16.234 1.52471 17.5046 3.27177C17.7587 3.62118 18.0129 4.00235 18.2034 4.41529C17.3776 4.98706 16.5517 5.52706 15.7576 6.09882C15.6305 6.19412 15.5352 6.25765 15.3764 6.32118C14.9952 5.36824 14.3282 4.51059 13.4705 3.93882C12.8352 3.52588 12.1046 3.24 11.374 3.08118C11.5964 2.06471 11.8505 1.04824 12.1046 0V0ZM4.41758 0.921177C5.40228 0.60353 6.54581 1.11176 6.95875 2.03294C7.30816 2.73177 7.21287 3.65294 6.7364 4.25647C6.13287 5.01882 4.98934 5.30471 4.1317 4.86C3.55993 4.57412 3.11523 4.03412 2.98817 3.39882C2.89288 2.92235 2.92464 2.41412 3.17876 1.96941C3.43288 1.46118 3.90935 1.11176 4.41758 0.921177V0.921177ZM0.0340576 11.7529C1.20935 11.7212 2.35288 11.7529 3.52817 11.7529C3.75052 13.0235 4.29052 14.2306 5.14817 15.1835C5.81522 15.9459 6.67287 16.4859 7.59404 16.8353C8.86463 17.3118 10.2623 17.3753 11.5964 17.0576C12.8034 16.7718 13.8834 16.1047 14.6776 15.12C15.2176 14.4529 15.6305 13.6906 15.8529 12.8647C16.9011 13.1506 17.8858 13.5318 18.934 13.8494C18.9023 14.1671 18.7752 14.4847 18.6481 14.8024C17.9493 16.6129 16.647 18.1694 14.9634 19.1541C13.8834 19.7894 12.6446 20.2024 11.4058 20.3612C8.95993 20.6788 6.38699 20.1706 4.32229 18.8047C3.21052 18.0741 2.22582 17.0894 1.527 15.9459C0.701115 14.7388 0.224646 13.2776 0.0340576 11.7529Z" fill="black"/>
<path d="M21.7295 8.89409C23.2225 6.47997 26.526 5.36821 29.1625 6.47997C29.9884 6.79762 30.5601 7.46468 31.0366 8.19527C31.0048 7.6235 31.0048 7.05174 31.0048 6.44821H34.1813C34.2448 10.9906 34.0542 15.5329 34.3084 20.0753H31.1954C31.1637 19.44 31.1319 18.8364 31.1001 18.2011C29.4801 21.0917 25.2554 20.9964 22.9683 19.027C20.1413 16.5494 19.7601 11.9753 21.7295 8.89409V8.89409ZM26.5578 8.95762C23.6354 9.68821 23.1272 13.627 24.4613 15.9141C25.4778 17.7882 28.3366 18.1694 29.7978 16.6129C31.2589 15.0882 31.386 12.6106 30.5284 10.7364C29.8613 9.27527 28.0825 8.57644 26.5578 8.95762V8.95762ZM50.4131 7.43291C52.7319 5.52703 56.3213 5.5588 58.7037 7.36938C60.7049 8.95762 61.2449 11.6894 61.0543 14.1035C57.719 14.1353 54.3519 14.1035 51.0166 14.1035C51.1754 15.4376 51.906 16.8035 53.2084 17.3117C55.0825 18.2329 57.5602 17.3435 58.2272 15.3106C59.1484 15.5964 60.0378 15.8823 60.959 16.1364C60.4508 17.5341 59.5296 18.8364 58.1955 19.567C55.5908 21.06 51.9696 20.6153 49.8413 18.4553C46.919 15.5329 47.1413 10.0376 50.4131 7.43291V7.43291ZM51.906 9.8788C51.4296 10.387 51.2707 11.0859 51.0802 11.7211C53.3355 11.7211 55.6225 11.7847 57.8778 11.6576C57.6555 10.8317 57.4013 9.94232 56.6708 9.40232C55.3049 8.38585 53.0496 8.51291 51.906 9.8788V9.8788ZM65.9143 7.30585C68.1061 5.62232 71.3143 5.62232 73.6331 7.05174C75.9202 8.54468 76.6825 11.5306 76.3649 14.1035C73.0296 14.0717 69.6943 14.1035 66.359 14.1035C66.5178 14.8976 66.7084 15.7235 67.2484 16.327C68.4555 17.82 70.8696 18.1059 72.3943 16.9623C72.9661 16.5494 73.2202 15.8506 73.6331 15.3423C74.5225 15.5647 75.412 15.8823 76.3014 16.1682C75.7931 17.5976 74.8402 18.9 73.4743 19.6306C70.9014 21.0282 67.4072 20.647 65.3108 18.5823C62.1978 15.6282 62.4519 9.8788 65.9143 7.30585V7.30585ZM67.1849 9.91056C66.7402 10.4188 66.5814 11.0859 66.3908 11.7211H73.1567C72.9978 10.927 72.7755 10.0694 72.1084 9.49762C70.7425 8.35409 68.3602 8.44938 67.1849 9.91056ZM82.5908 8.09997C84.4014 5.30468 89.1979 5.33644 90.7226 8.38585C92.1837 5.87644 95.8367 5.30468 98.1238 6.98821C99.3626 7.94115 99.9343 9.52938 99.9343 11.0541C99.9661 14.04 99.9343 17.0259 99.9343 20.0117H96.7896V11.9753C96.7896 11.1494 96.6626 10.26 96.0908 9.65644C94.8838 8.44938 92.5649 8.76703 91.7708 10.2917C91.3579 10.9906 91.3579 11.8482 91.3579 12.6106V20.0117H88.1814C88.1496 17.1211 88.2132 14.2306 88.1496 11.3717C88.1496 10.1011 87.1014 8.92585 85.799 8.95762C84.2743 8.73527 82.8449 9.97409 82.7496 11.467C82.6543 14.3259 82.7496 17.1847 82.7178 20.0117H79.5096V6.38468H82.6226C82.6226 6.98821 82.6226 7.55997 82.5908 8.09997V8.09997ZM38.3107 6.41644H41.4872C41.4872 7.11527 41.4554 7.84585 41.4554 8.54468C42.3448 6.76585 44.4096 6.03527 46.2837 6.28938V9.62468C45.1719 9.59291 43.9331 9.46585 42.9801 10.1647C41.9637 10.8317 41.6143 12.1341 41.5825 13.2776C41.5507 15.5329 41.5825 17.7882 41.5507 20.0435H38.3107V6.41644V6.41644Z" fill="black"/>
</g>
<defs>
<clipPath id="clip0">
<rect width="100" height="20.52" fill="white"/>
</clipPath>
</defs>
</svg>
