<svg width="100" height="27" viewBox="0 0 100 27" fill="none" xmlns="http://www.w3.org/2000/svg">
<g clip-path="url(#clip0)">
<path d="M99.9805 4.56859C99.9693 4.53132 99.9581 4.49405 99.9433 4.45679C91.1145 4.46051 82.2895 4.45679 73.4645 4.46051C73.4421 4.4866 73.4272 4.51269 73.4235 4.54623C73.4235 11.3923 73.4235 18.2346 73.4197 25.0808C73.4756 25.4459 73.6768 25.7776 73.9452 26.0274C73.9564 26.0311 73.9825 26.0347 73.9937 26.0385C74.1316 26.1838 74.3291 26.2547 74.5154 26.3217C74.6533 26.3143 74.7875 26.3739 74.9254 26.359H85.8821C85.9865 26.3553 86.0945 26.3739 86.1951 26.333C86.1989 26.3181 86.2025 26.292 86.2063 26.277C86.2101 26.2584 86.2137 26.2174 86.2175 26.1951C86.4523 24.8833 86.6796 23.5677 86.9293 22.2559L86.9517 22.0882C85.938 22.0844 84.9206 22.0882 83.907 22.0844C83.6609 22.077 83.4076 22.0844 83.1616 22.0546C82.7405 22.0359 82.3157 22.0508 81.8945 22.0099C81.3728 22.0099 80.8548 21.9614 80.333 21.9614C79.9231 21.9204 79.5094 21.9354 79.0957 21.9167C78.8275 21.8833 78.5516 21.8981 78.2796 21.8869C77.8361 21.8385 77.3852 21.872 76.9417 21.8236C76.4721 21.8274 76.0026 21.7863 75.533 21.7751C75.5367 21.7713 75.5404 21.7564 75.5404 21.7527C75.697 21.7564 75.8498 21.7453 76.0063 21.7416C76.3529 21.6968 76.7032 21.7267 77.0498 21.6782C77.4113 21.6782 77.7691 21.6298 78.1306 21.6298C78.4511 21.585 78.7753 21.6111 79.0957 21.5664C79.4722 21.5664 79.8411 21.518 80.2176 21.5142C80.5269 21.4732 80.8399 21.4956 81.1492 21.4546C81.5107 21.4583 81.8685 21.4024 82.23 21.4062C82.5841 21.3651 82.9455 21.3762 83.2995 21.339C83.2661 21.2012 83.2399 21.0633 83.2102 20.9253C83.1841 20.8396 83.0797 20.8582 83.0126 20.847C82.2039 20.7314 81.3989 20.616 80.594 20.5042C80.6461 20.4631 80.7169 20.4818 80.7766 20.4743C81.4027 20.4259 82.025 20.37 82.6511 20.3253C82.7928 20.3179 82.9306 20.2917 83.0723 20.288C83.0089 20.0943 82.9716 19.8818 82.8859 19.7029C81.5481 19.498 80.2101 19.3154 78.8759 19.0954C79.2225 19.0395 79.5728 19.0135 79.9194 18.9762L79.9492 18.965C81.0561 18.8494 82.1667 18.719 83.2735 18.611C84.6784 18.6035 86.0798 18.6072 87.4848 18.611C87.5294 18.6035 87.6078 18.6258 87.6152 18.5625C87.7307 17.9588 87.8425 17.3551 87.958 16.7513C88.1183 15.9128 88.3717 15.0854 88.763 14.3214C89.3779 13.0916 90.3506 12.0481 91.5356 11.355C92.6425 10.7065 93.9246 10.3935 95.1991 10.3338C95.6128 10.2966 96.0302 10.3077 96.4402 10.3599C96.7085 10.4233 96.9843 10.4978 97.1967 10.6804C97.3719 10.822 97.4762 11.0307 97.5545 11.2394C97.726 11.7351 97.8228 12.2494 97.9048 12.7674C97.9085 12.9761 97.9458 13.2109 97.834 13.401C97.7296 13.5873 97.521 13.6768 97.3234 13.7327C96.6041 13.919 95.8514 13.7438 95.1321 13.919C94.5396 14.0457 93.988 14.3736 93.6115 14.847C93.1681 15.3985 92.9333 16.0841 92.8028 16.77C92.7022 17.3812 92.5755 17.9923 92.4749 18.6072C93.1829 18.611 93.8948 18.6035 94.6066 18.611C94.8898 18.611 95.1805 18.7675 95.296 19.0358C95.4451 19.3787 95.4116 19.7663 95.3631 20.1278C95.3035 20.534 95.2066 20.9365 95.024 21.3091C94.8711 21.6259 94.6178 21.9166 94.2712 22.0285C94.0923 22.0993 93.8985 22.0844 93.7084 22.0844C93.0823 22.0844 92.4562 22.0918 91.8301 22.0844C91.7295 22.5428 91.6624 23.0123 91.573 23.4782C91.4091 24.3837 91.2488 25.2931 91.0848 26.2024C91.081 26.2323 91.0773 26.2956 91.0773 26.3291C91.3717 26.3441 91.6661 26.3292 91.9606 26.3366C94.1445 26.3366 96.3321 26.3328 98.5197 26.3366C98.7545 26.3441 98.993 26.2882 99.198 26.1726C99.321 26.1279 99.3955 26.0198 99.5036 25.9602C99.6079 25.9006 99.6377 25.7777 99.7272 25.6993C99.8241 25.5279 99.9247 25.3491 99.9322 25.1477C99.9433 25.1477 99.9731 25.144 99.9881 25.1403C99.9767 18.2831 99.988 11.4259 99.9805 4.56859Z" fill="url(#paint0_linear)" stroke="#FCD109" stroke-width="0.094"/>
<path d="M76.897 0.0592089C77.2137 -0.041414 77.5454 0.0256679 77.8697 0.00330726C83.9556 0.00703404 90.0414 0.00330726 96.1271 0.00330726C96.4886 -0.0115998 96.8054 0.193373 97.1408 0.297722C97.4091 0.405799 97.6886 0.491515 97.957 0.607045C98.0129 0.629405 98.0539 0.677853 98.0948 0.718848C98.0911 1.21078 98.0948 1.70644 98.0948 2.2021C98.0986 2.33254 98.0762 2.4667 98.1209 2.59342C98.1992 2.6046 98.2401 2.66422 98.2924 2.71267C98.5384 2.82448 98.747 3.00709 98.9706 3.15616C99.306 3.39467 99.6638 3.60337 99.9917 3.84934C100.007 3.94623 99.9954 4.04686 99.9656 4.1363C99.9322 4.24065 99.9544 4.35245 99.9433 4.4568C91.1145 4.46053 82.2895 4.4568 73.4645 4.46053C73.4459 4.33755 73.4794 4.21456 73.4273 4.09903C73.4198 4.00214 73.3863 3.87543 73.4794 3.80834C73.8521 3.54747 74.2472 3.31268 74.6123 3.0369C74.8397 2.89156 75.0595 2.74249 75.2794 2.59342C75.3241 2.51888 75.3092 2.42571 75.3092 2.34372C75.3092 1.80334 75.3092 1.26296 75.3129 0.722575C75.4397 0.558597 75.6596 0.539963 75.8347 0.457974C76.1889 0.32381 76.5467 0.193373 76.897 0.0592089V0.0592089ZM76.9193 0.122564C76.4423 0.305176 75.9616 0.480334 75.4845 0.662946C75.4212 0.674127 75.3876 0.730028 75.3541 0.778476C75.3578 0.80829 75.3615 0.860465 75.3615 0.89028C75.3577 1.33749 75.3615 1.78471 75.3577 2.23192C75.3615 2.34372 75.3466 2.45552 75.3876 2.55615C75.3391 2.6046 75.287 2.65304 75.2273 2.69031C74.6869 3.04063 74.1652 3.42076 73.6248 3.76735C73.5316 3.82325 73.4273 3.89779 73.4571 4.02077C73.4385 4.08785 73.472 4.14375 73.5428 4.12512C74.713 4.11767 75.8795 4.13257 77.0498 4.11394C78.7902 4.11394 80.5268 4.11767 82.2673 4.11394L82.2933 4.10276C82.3716 4.12139 82.4498 4.11394 82.5318 4.11394C85.6846 4.11394 88.8375 4.11767 91.994 4.11394C92.9854 4.11767 93.9804 4.11394 94.9754 4.11394C96.6152 4.11394 98.2588 4.12885 99.8985 4.12139C99.947 4.11021 99.9619 4.07667 99.9433 4.01704C99.9395 3.95741 99.9619 3.87543 99.8985 3.83816C99.6377 3.71517 99.4141 3.52511 99.1644 3.37604C99.075 3.3015 98.9594 3.26051 98.8923 3.15988C98.6352 3.01454 98.3967 2.83566 98.1432 2.6754C98.0947 2.64559 98.0574 2.59714 98.0165 2.55615C98.0389 2.47789 98.0463 2.39217 98.0463 2.31018C98.0426 1.83688 98.0463 1.36358 98.0426 0.89028C98.0538 0.815744 98.05 0.730028 97.9829 0.68158C97.5357 0.521329 97.0923 0.349897 96.6487 0.185919C96.5108 0.118837 96.358 0.0815695 96.209 0.0592089H77.1614C77.0796 0.0629356 77.0013 0.10393 76.9193 0.122564V0.122564Z" fill="#F8F3B5" stroke="#F8F3B5" stroke-width="0.094"/>
<path d="M75.3615 0.890259C75.6894 1.02815 76.0397 1.10641 76.3714 1.24058C76.5503 1.31138 76.6062 1.50518 76.6845 1.6617C76.6061 1.73996 76.513 1.80332 76.4198 1.86295C76.0769 2.09401 75.7266 2.31761 75.3875 2.55613C75.3465 2.4555 75.3615 2.3437 75.3577 2.2319C75.3615 1.78468 75.3577 1.33747 75.3615 0.890259V0.890259ZM97.0326 1.24058C97.3643 1.11014 97.7109 1.0207 98.0426 0.890259C98.0463 1.36356 98.0426 1.83686 98.0463 2.31016C98.0463 2.39215 98.0389 2.47786 98.0165 2.55613C97.7258 2.35488 97.4314 2.16482 97.1407 1.9673C96.9991 1.86295 96.8426 1.78468 96.7159 1.65797C96.7941 1.50145 96.8538 1.31138 97.0326 1.24058V1.24058Z" fill="#F7B402" stroke="#F7B402" stroke-width="0.094"/>
<path d="M81.0486 1.39339C81.4585 1.29649 81.9169 1.66172 81.8833 2.09029C81.8871 2.51142 81.4435 2.85428 81.0374 2.75739C80.8734 2.70149 80.7168 2.61577 80.6163 2.47043C80.4858 2.27291 80.4559 2.00831 80.5603 1.79215C80.6349 1.58345 80.8361 1.44184 81.0486 1.39339V1.39339ZM91.681 1.62817C91.8524 1.43811 92.1245 1.33003 92.3779 1.39711C92.568 1.45302 92.7543 1.576 92.8363 1.76234C93.0003 2.08284 92.8735 2.51515 92.553 2.68285C92.2697 2.83938 91.912 2.76484 91.6959 2.53751C91.476 2.28781 91.461 1.87787 91.681 1.62817V1.62817Z" fill="#BDA727" stroke="#BDA727" stroke-width="0.094"/>
<path d="M76.4199 1.86293C76.5131 1.8033 76.6062 1.73995 76.6846 1.66169L76.7106 1.68777C76.7367 1.88157 76.718 2.07908 76.7255 2.27288C76.7143 2.85425 76.7367 3.43936 76.7106 4.02073C75.6261 4.02073 74.5417 4.01328 73.4571 4.02073C73.4273 3.89775 73.5316 3.82321 73.6248 3.76731C74.1652 3.42072 74.6869 3.04059 75.2273 2.69028C75.287 2.65301 75.3391 2.60456 75.3876 2.55611C75.7267 2.3176 76.077 2.09399 76.4199 1.86293V1.86293ZM96.6786 1.7884C96.6786 1.73995 96.6899 1.69895 96.7159 1.65796C96.8426 1.78467 96.9992 1.86293 97.1407 1.96728C97.4314 2.1648 97.7258 2.35487 98.0165 2.55611C98.0575 2.59711 98.0948 2.64555 98.1432 2.67537C98.3966 2.83562 98.6351 3.0145 98.8923 3.15985C98.9594 3.26047 99.0749 3.30147 99.1644 3.376C99.4141 3.52507 99.6377 3.71514 99.8985 3.83812C99.9619 3.87539 99.9395 3.95738 99.9433 4.01701C98.8587 4.02073 97.7779 4.01328 96.6935 4.02073C96.6749 3.87166 96.686 3.72259 96.6823 3.57725C96.6824 2.98096 96.6749 2.38468 96.6786 1.7884V1.7884Z" fill="#F7E62D" stroke="#F7E62D" stroke-width="0.094"/>
<path d="M99.9431 4.01705C98.8586 4.02077 97.7778 4.01332 96.6934 4.02077C96.6748 3.8717 96.6859 3.72263 96.6822 3.57729C96.6822 2.981 96.6748 2.38472 96.6784 1.78843C96.6784 1.73998 96.6897 1.69899 96.7157 1.65799C96.794 1.50147 96.8536 1.3114 97.0325 1.24059C97.3641 1.11016 97.7107 1.02071 98.0425 0.890276C98.0537 0.815741 98.0499 0.730025 97.9828 0.681577C97.5356 0.521325 97.0922 0.349893 96.6486 0.185915C96.5107 0.118833 96.3579 0.0815648 96.2088 0.0592041H77.1613C77.0794 0.0629309 77.0011 0.103925 76.9191 0.122559C76.4421 0.305172 75.9613 0.48033 75.4843 0.662943C75.4209 0.674123 75.3873 0.730025 75.3539 0.778473C75.3576 0.808287 75.3613 0.860462 75.3613 0.890276C75.6893 1.02817 76.0395 1.10643 76.3713 1.24059C76.5502 1.3114 76.6061 1.5052 76.6843 1.66172L76.7103 1.68781C76.7364 1.8816 76.7178 2.07912 76.7252 2.27291C76.7141 2.85429 76.7364 3.43939 76.7103 4.02077C75.6258 4.02077 74.5414 4.01332 73.4569 4.02077C73.4382 4.08785 73.4718 4.14376 73.5426 4.12512C74.7128 4.11767 75.8793 4.13258 77.0495 4.11394C78.7899 4.11394 80.5266 4.11767 82.267 4.11394L82.2931 4.10276C82.3714 4.1214 82.4495 4.11394 82.5315 4.11394C85.6844 4.11394 88.8372 4.11767 91.9938 4.11394C92.9851 4.11767 93.9802 4.11394 94.9752 4.11394C96.6149 4.11394 98.2585 4.12885 99.8983 4.1214C99.9469 4.11022 99.9618 4.07667 99.9431 4.01705V4.01705ZM80.5602 1.79216C80.6348 1.58346 80.8359 1.44184 81.0484 1.39339C81.4584 1.2965 81.9168 1.66172 81.8832 2.0903C81.887 2.51143 81.4434 2.85429 81.0373 2.75739C80.8733 2.70149 80.7167 2.61578 80.6161 2.47043C80.4857 2.27291 80.4559 2.00831 80.5602 1.79216ZM91.6809 1.62818C91.8523 1.43811 92.1244 1.33004 92.3778 1.39712C92.5679 1.45302 92.7542 1.576 92.8362 1.76234C93.0002 2.08285 92.8735 2.51515 92.553 2.68286C92.2696 2.83938 91.912 2.76485 91.6958 2.53751C91.4759 2.28782 91.4609 1.87787 91.6809 1.62818Z" fill="url(#paint1_radial)" stroke="#FCD109" stroke-width="0.094"/>
<path d="M92.6312 5.65476C92.6833 5.66594 92.3596 5.34373 92.4229 5.32882C92.4826 5.33627 92.7086 5.16078 92.9819 5.30396C93.2552 5.44714 93.1874 5.78222 93.1564 5.90647C93.1195 6.05435 93.0254 6.14871 92.9508 6.22324C92.9099 6.25678 92.818 6.30896 92.7621 6.30523C92.7956 6.12262 92.6875 6.09281 92.6801 5.90647L92.6312 5.65476Z" fill="url(#paint2_linear)" stroke="#FCD109" stroke-width="0.094"/>
<path d="M80.7177 5.85681C80.7103 6.04315 80.6021 6.07297 80.6357 6.25558C80.5798 6.25931 80.4879 6.20713 80.4469 6.17359C80.3724 6.09906 80.2783 6.00469 80.2414 5.85681C80.2104 5.7326 80.1426 5.39752 80.4159 5.2543C80.6891 5.11108 80.9152 5.28658 80.9749 5.27916C81.0382 5.29407 80.7145 5.61629 80.7666 5.60511L80.7177 5.85681Z" fill="url(#paint3_linear)" stroke="#FCD109" stroke-width="0.094"/>
<path d="M92.1433 8.04214C92.1993 7.99347 92.2366 7.99347 92.3111 7.99347C91.8639 8.96243 91.3421 9.9314 90.5577 10.6858C90.4738 10.7607 90.3852 10.8301 90.2924 10.8937C90.2026 10.9594 90.1146 11.021 90.027 11.0838C89.9413 11.1434 89.8561 11.2032 89.7731 11.2656C89.5607 11.3812 89.3744 11.5414 89.1396 11.6122C88.711 11.8172 88.249 11.9551 87.7831 12.052C87.6005 12.0818 87.4142 12.1265 87.2278 12.1302C86.9968 12.1974 86.7508 12.1489 86.516 12.1638C86.3856 12.1861 86.27 12.1116 86.1433 12.1265C86.0334 12.111 85.9237 12.0923 85.8147 12.0706C85.7041 12.048 85.5942 12.0219 85.4852 11.9923C83.7768 11.4594 82.0998 10.155 81.6112 8.39093C81.5892 8.27213 81.5781 8.15156 81.578 8.03074C81.6301 8.13509 81.6842 8.23869 81.7402 8.34133C82.4352 9.85686 83.8141 11.0494 85.4431 11.409C85.5753 11.4693 85.7184 11.4482 85.8452 11.5004C85.9607 11.5004 86.0725 11.4966 86.1843 11.5339C86.5682 11.5413 86.952 11.5376 87.3359 11.5376C87.388 11.5414 87.4365 11.5153 87.4887 11.5041C88.1284 11.4824 88.7553 11.3079 89.3389 11.0433C89.4557 10.9904 89.5707 10.9339 89.6838 10.8742C89.7827 10.8222 89.8793 10.7657 89.9733 10.7051C90.0656 10.6456 90.1553 10.5823 90.2422 10.5152C90.9322 9.96867 91.5285 9.26058 91.9334 8.44631C92.0105 8.29977 92.081 8.16408 92.1433 8.04214Z" fill="#BDA727" stroke="#BDA727" stroke-width="0.094"/>
<path d="M91.5359 11.355C92.6428 10.7066 93.9249 10.3935 95.1994 10.3339C95.6131 10.2966 96.0305 10.3078 96.4405 10.36C96.7088 10.4233 96.9846 10.4979 97.197 10.6805C97.0889 10.6879 96.9846 10.6395 96.8765 10.6246C96.5709 10.565 96.2541 10.5873 95.9448 10.5799C95.0466 10.5799 94.141 10.6507 93.2727 10.8966C92.818 11.0345 92.3633 11.1948 91.9497 11.4333C91.2341 11.8283 90.5894 12.3501 90.0676 12.9762C89.1359 14.0458 88.5881 15.4023 88.3235 16.785C88.1968 17.5265 88.0514 18.2644 87.9359 19.0097C87.7496 19.0284 87.5595 19.0172 87.3732 19.0172C86.5533 19.0135 85.7334 19.0097 84.9135 19.0024C84.7383 19.0097 84.5668 18.9689 84.3917 18.98C82.901 18.9874 81.4103 18.9762 79.9196 18.9762L79.9494 18.965C81.0562 18.8494 82.1668 18.719 83.2737 18.611C84.6786 18.6036 86.08 18.6072 87.485 18.611C87.5296 18.6036 87.6079 18.6258 87.6154 18.5625C87.7309 17.9588 87.8427 17.3551 87.9582 16.7513C88.1185 15.9129 88.3719 15.0855 88.7633 14.3215C89.3782 13.0917 90.3509 12.0482 91.5359 11.355Z" fill="#0D69B3" stroke="#0D69B3" stroke-width="0.094"/>
<path d="M93.2725 10.8966C94.1408 10.6506 95.0464 10.5798 95.9446 10.5798C96.2539 10.5873 96.5707 10.5649 96.8763 10.6246C96.9843 10.6395 97.0886 10.6879 97.1968 10.6805C97.3719 10.8221 97.4763 11.0308 97.5545 11.2395C97.7261 11.7351 97.8229 12.2494 97.9049 12.7675C97.9086 12.9762 97.9459 13.2109 97.8341 13.401C97.7297 13.5873 97.5211 13.6768 97.3235 13.7327C96.6042 13.919 95.8514 13.7438 95.1321 13.919C94.5397 14.0457 93.9881 14.3737 93.6116 14.847C93.1682 15.3985 92.9333 16.0842 92.8029 16.77C92.7023 17.3812 92.5756 17.9924 92.4749 18.6073C92.4302 18.7452 92.4042 18.8943 92.378 19.0396C93.0823 19.0509 93.7868 19.0396 94.4911 19.0471C94.7594 19.0396 95.0277 19.0545 95.2961 19.0358C95.4452 19.3787 95.4116 19.7664 95.3632 20.1278C95.3036 20.534 95.2067 20.9365 95.0241 21.3092C94.8712 21.626 94.6178 21.9167 94.2712 22.0285C94.0924 22.0993 93.8986 22.0844 93.7085 22.0844C93.0823 22.0844 92.4562 22.0918 91.8302 22.0844C91.7296 22.5428 91.6625 23.0124 91.5731 23.4782C91.4092 24.3838 91.2489 25.2931 91.0848 26.2025C91.0811 26.2323 91.0774 26.2956 91.0774 26.3292V26.3329C89.4488 26.3329 87.8239 26.3367 86.1953 26.3329C86.1991 26.3181 86.2028 26.2919 86.2065 26.277C86.2103 26.2584 86.2139 26.2174 86.2177 26.1951C86.2215 26.2249 86.2251 26.2808 86.2289 26.3069C86.3295 26.3181 86.5122 26.3702 86.5382 26.2249C86.7917 24.8534 87.0265 23.4745 87.2873 22.103C87.1867 22.0807 87.0824 22.0807 86.978 22.0993C86.9632 22.1515 86.9482 22.2036 86.9296 22.2558L86.9519 22.0881C85.9383 22.0843 84.9208 22.0881 83.9072 22.0843C83.6612 22.0769 83.4078 22.0843 83.1619 22.0545C82.7407 22.0359 82.3159 22.0508 81.8947 22.0097C81.373 22.0097 80.855 21.9613 80.3332 21.9613C79.9233 21.9203 79.5096 21.9352 79.0959 21.9166C78.8277 21.8831 78.5518 21.8979 78.2798 21.8868C77.8364 21.8383 77.3854 21.872 76.9419 21.8234C76.4724 21.8272 76.0028 21.7861 75.5332 21.775C75.5369 21.7713 75.5407 21.7564 75.5407 21.7526C75.6972 21.7564 75.85 21.7451 76.0065 21.7414C76.3531 21.6967 76.7034 21.7265 77.05 21.6781C77.4115 21.6781 77.7693 21.6296 78.1308 21.6296C78.4513 21.5849 78.7755 21.611 79.0959 21.5663C79.4724 21.5663 79.8413 21.5178 80.2178 21.5141C80.5271 21.4731 80.8401 21.4955 81.1495 21.4545C81.511 21.4582 81.8687 21.4023 82.2302 21.406C82.5843 21.3649 82.9457 21.3761 83.2997 21.3389C83.2663 21.201 83.2401 21.0632 83.2104 20.9252C83.1843 20.8395 83.0799 20.8581 83.0129 20.8469C82.2041 20.7313 81.3992 20.6159 80.5942 20.504C80.6464 20.463 80.7172 20.4816 80.7768 20.4743C81.4029 20.4257 82.0253 20.3698 82.6514 20.3252C82.793 20.3177 82.9309 20.2917 83.0725 20.2879C83.0091 20.0941 82.9719 19.8817 82.8861 19.7028C81.5483 19.4978 80.2103 19.3152 78.8761 19.0954C79.2227 19.0395 79.573 19.0133 79.9196 18.9761C81.4103 18.9761 82.9011 18.9873 84.3918 18.9798C84.5669 18.9687 84.7384 19.0096 84.9135 19.0022C85.7334 19.0096 86.5533 19.0134 87.3732 19.0171C87.5595 19.0171 87.7496 19.0283 87.9359 19.0096C88.0515 18.2643 88.1968 17.5264 88.3235 16.7848C88.5881 15.4021 89.136 14.0456 90.0677 12.9761C90.5894 12.3499 91.2341 11.8282 91.9497 11.4332C92.3631 11.1948 92.8178 11.0345 93.2725 10.8966Z" fill="#107BD4" stroke="#107BD4" stroke-width="0.094"/>
<path d="M92.4752 18.6073C93.1833 18.6111 93.8952 18.6036 94.607 18.6111C94.8902 18.6111 95.1809 18.7676 95.2964 19.0359C95.0281 19.0545 94.7598 19.0397 94.4914 19.0471C93.7871 19.0397 93.0826 19.0509 92.3783 19.0397C92.4044 18.8943 92.4304 18.7452 92.4752 18.6073V18.6073ZM86.9782 22.0993C87.0825 22.0807 87.1869 22.0807 87.2875 22.1031C87.0266 23.4745 86.7918 24.8535 86.5384 26.225C86.5123 26.3702 86.3297 26.3181 86.2291 26.3069C86.2253 26.2809 86.2216 26.225 86.2179 26.1951C86.4527 24.8833 86.6799 23.5677 86.9297 22.2559C86.9484 22.2036 86.9633 22.1515 86.9782 22.0993Z" fill="#0D69B3" stroke="#0D69B3" stroke-width="0.094"/>
<path d="M92.8005 5.75915C92.7706 5.70324 92.767 5.63616 92.767 5.57281L92.7371 5.57653C92.6924 5.41256 92.5546 5.25603 92.3756 5.24858C92.2414 5.2374 92.0737 5.24112 91.9956 5.36783C91.8465 5.56908 91.9172 5.82623 91.9098 6.05356C91.9098 6.06847 91.9136 6.09456 91.9136 6.10946C91.9136 6.26226 91.8949 6.41133 91.8688 6.5604C91.8465 6.60512 91.8353 6.65357 91.8353 6.70575C91.772 7.05606 91.6452 7.40265 91.4739 7.71943C91.4403 7.76415 91.4142 7.8126 91.4031 7.86477C91.2913 8.05857 91.1571 8.23745 91.0192 8.41634C90.9968 8.43497 90.9782 8.45733 90.9596 8.47969C90.8626 8.59895 90.7583 8.69957 90.6502 8.80392C90.6241 8.81883 90.6055 8.83746 90.5831 8.85237C90.4564 8.97535 90.3148 9.09088 90.162 9.18405C90.1434 9.19523 90.1247 9.21014 90.1023 9.22505C89.1482 9.85487 87.9893 10.1157 86.8601 10.1269C85.9023 10.1567 84.937 9.95177 84.0724 9.5381C84.0576 9.53064 84.0203 9.51573 84.0053 9.50828C83.86 9.43002 83.7109 9.36294 83.5767 9.26604C83.5469 9.25113 83.5171 9.2325 83.4836 9.21759C83.3457 9.1356 83.2152 9.04616 83.0923 8.94181C83.0513 8.90454 83.0066 8.87473 82.9618 8.84119C82.8277 8.73311 82.6898 8.61758 82.5743 8.48714C82.5445 8.4536 82.5146 8.42379 82.4849 8.39398C82.0787 7.97285 81.762 7.45855 81.5943 6.89954C81.4339 6.45605 81.4564 5.97157 81.4377 5.50573C81.3035 5.30075 81.0203 5.18522 80.7967 5.31193C80.7036 5.37902 80.6924 5.502 80.6216 5.58771C80.506 6.81755 81.0315 8.04366 81.87 8.93063C81.87 8.96044 81.8849 8.97908 81.9111 8.99026C82.0602 9.12815 82.2054 9.26977 82.3545 9.40393C82.3806 9.43002 82.4104 9.45611 82.444 9.47847C82.593 9.60145 82.7533 9.71325 82.9098 9.82878C82.9396 9.85114 82.9694 9.86978 83.003 9.88841C83.2079 10.0077 83.4017 10.1493 83.6216 10.2313C83.6365 10.2425 83.6626 10.2611 83.6775 10.2685C84.3856 10.6077 85.1496 10.8387 85.9322 10.9133C86.0179 10.9133 86.1036 10.9207 86.1893 10.9394C86.562 10.9617 86.9347 10.9505 87.3074 10.9431C88.4589 10.8425 89.6478 10.563 90.6093 9.88469L90.6205 9.89959C90.6503 9.8735 90.6764 9.85114 90.7062 9.82878C90.859 9.71698 91.0081 9.59772 91.1572 9.47474C91.1907 9.44865 91.2279 9.41884 91.2615 9.3853C91.4255 9.20641 91.6156 9.04243 91.7535 8.83746L91.7758 8.84864C91.787 8.83001 91.8056 8.79274 91.8169 8.77411C91.9435 8.60268 92.0591 8.42379 92.1709 8.2449C92.1783 8.23372 92.1969 8.21509 92.2044 8.20391L92.1896 8.189C92.2008 8.1741 92.2268 8.14428 92.238 8.12937C92.443 7.71198 92.6255 7.27594 92.689 6.81382C92.715 6.80264 92.73 6.78028 92.73 6.75419C92.7338 6.60512 92.7859 6.46351 92.771 6.31444C92.8042 6.13182 92.8079 5.94548 92.8005 5.75915V5.75915Z" fill="white" stroke="white" stroke-width="0.094"/>
<path d="M92.8825 5.5587C92.298 5.59369 91.7495 5.39368 91.2179 5.21088M80.3358 5.63323C80.6379 5.728 81.3319 5.48957 81.5284 5.70777L80.3358 5.63323ZM80.5097 6.55248C80.7992 6.45175 81.42 6.21323 81.6774 6.35373L80.5097 6.55248ZM80.8079 7.47177C80.9478 7.51708 81.2237 7.27123 81.3607 7.19919C81.5646 7.09197 81.7737 7.00979 82.0004 6.97487L80.8079 7.47177ZM81.2551 8.44073C81.3994 8.23561 81.5722 8.06526 81.7807 7.91954C81.9874 7.77516 82.5528 7.3894 82.7955 7.52144L81.2551 8.44073ZM81.6774 9.13641C81.8413 9.00616 81.908 8.77577 82.08 8.63892C82.2881 8.47338 82.6069 8.44367 82.8203 8.34134L81.6774 9.13641ZM82.3793 9.6519C82.4283 9.29159 82.7942 8.85679 83.1433 8.88791L82.3793 9.6519ZM82.9197 10.1551C83.1042 10.1366 83.2602 9.72364 83.385 9.5837C83.5719 9.37407 83.7655 9.30959 84.0128 9.23577L82.9197 10.1551ZM83.988 10.6023C83.9761 10.3415 84.2455 9.59398 84.5595 9.6333L83.988 10.6023ZM84.7831 10.8507C84.77 10.5426 84.9293 9.61578 85.3048 9.58362L84.7831 10.8507ZM85.603 11.3476C85.5317 10.9167 85.5364 10.2934 85.8762 9.98112L85.603 11.3476ZM86.6216 11.447C86.5837 11.0878 86.2268 10.3617 86.6216 10.0805V11.447ZM87.7148 11.1985C87.5444 11.001 87.4453 10.2217 87.516 10.006L87.7148 11.1985ZM88.7582 11.0246C88.6268 10.786 88.464 10.5619 88.4142 10.2849C88.3845 10.1193 88.4366 9.88352 88.4104 9.75751L88.7582 11.0246ZM89.6279 10.6519C89.3428 10.4655 89.2637 9.78021 89.3545 9.48423L89.6279 10.6519ZM90.4726 10.2793C90.2698 9.84431 90.0536 9.50707 90.0502 9.01216L90.4726 10.2793ZM91.2924 9.48423C90.9774 9.27229 90.5753 8.88701 90.6216 8.46559L91.2924 9.48423ZM92.162 8.81341C91.6833 8.70734 91.1089 8.27903 90.8204 7.89412L92.162 8.81341ZM92.5595 7.99352C92.2142 7.91947 91.0732 7.4743 91.1434 7.02455L92.5595 7.99352ZM92.9322 7.12395C92.4511 6.94756 91.7511 6.78898 91.367 6.45312L92.9322 7.12395ZM93.1806 6.32887C92.8776 6.35481 92.4434 6.20809 92.1354 6.15495C91.7934 6.09595 91.4762 5.98068 91.1434 5.90648L93.1806 6.32887Z" stroke="#D1D1D1" stroke-width="2"/>
<path d="M18.0875 7.3506C18.6277 7.26909 19.2492 7.21815 19.7077 7.55438C19.993 7.76829 20.0949 8.15547 20.0745 8.50198C20.0949 9.07255 19.83 9.68393 19.3206 9.97946C18.8722 10.224 18.3322 10.2443 17.8329 10.1934C17.4966 10.1527 17.1604 9.96932 16.9872 9.66362C16.5999 8.77713 17.0788 7.52382 18.0875 7.3506ZM1.92717 7.99253C1.95769 7.68683 2.23284 7.41172 2.54868 7.42196C4.90251 7.42196 7.24606 7.4321 9.58964 7.42196C9.84437 7.40158 10.1195 7.51361 10.2417 7.73777C10.4149 8.04348 10.2621 8.37971 10.2417 8.69563C10.1705 9.1235 10.1908 9.69418 9.69157 9.85715C7.97971 9.90809 6.26786 9.85715 4.556 9.87753C4.39299 10.9576 4.24016 12.0274 4.07708 13.0973C4.07708 13.1381 4.08732 13.2299 4.08732 13.2705C5.3406 13.2604 6.59388 13.2705 7.84715 13.2604C8.19363 13.24 8.56038 13.5356 8.52982 13.9023C8.4993 14.2793 8.41776 14.6461 8.36685 15.0232C8.326 15.2778 8.12226 15.5122 7.85733 15.5632C6.46135 15.5937 5.04499 15.5326 3.64917 15.5937C3.42493 17.1323 3.15999 18.6708 2.92561 20.2095C2.89513 20.5152 2.6505 20.7801 2.34483 20.7902C1.7641 20.8005 1.18323 20.8005 0.602491 20.7902C0.225491 20.8005 -0.0802186 20.3826 0.0216341 20.026C0.643372 16.0116 1.28527 12.0072 1.92717 7.99253V7.99253ZM12.2796 7.44224C12.8095 7.40154 13.3494 7.4321 13.8793 7.42196C14.2054 7.40158 14.5315 7.65627 14.562 7.99253C14.562 8.25739 14.4906 8.52237 14.4601 8.78727C14.0321 11.5181 13.594 14.2488 13.166 16.9796C13.1049 17.4177 12.9928 17.8864 13.1253 18.3348C13.2781 18.7831 13.9607 18.5895 14.1238 19.0581C14.2257 19.4352 14.1136 19.8325 14.083 20.2198C14.0525 20.7292 13.4717 20.8412 13.0744 20.9535C12.2083 21.1165 11.1587 20.9942 10.5371 20.2809C10.0888 19.7613 10.0582 19.0276 10.15 18.3755C10.69 14.9112 11.23 11.4468 11.7803 7.97215C11.8109 7.71739 12.0147 7.48305 12.2796 7.44224V7.44224ZM32.5055 7.99253C32.536 7.68683 32.8112 7.42196 33.1169 7.42196H34.6657C35.0529 7.41172 35.3688 7.82952 35.2771 8.19627C34.9204 10.4584 34.5537 12.7204 34.197 14.9824C34.7371 14.9009 35.3485 14.799 35.7255 14.3609C36.3571 13.6475 36.8769 12.8224 37.264 11.9563C37.3964 11.6199 37.4678 11.1309 37.906 11.0697C38.4868 11.0493 39.0777 11.0595 39.6585 11.0697C40.0559 11.0595 40.3514 11.5078 40.219 11.8746C40.0661 12.4148 39.8114 12.914 39.5465 13.3929C38.9555 14.3507 38.3034 15.2983 37.4474 16.0523C37.8244 17.1833 38.3034 18.2838 38.7211 19.3945C38.8434 19.7613 39.139 20.1892 38.8638 20.5459C38.5478 20.9738 37.9569 20.7597 37.5188 20.8107C37.0602 20.7597 36.3979 20.9941 36.1432 20.4745C35.6642 19.3638 35.2669 18.2227 34.7777 17.112C34.4925 17.1221 34.197 17.1324 33.9116 17.1018C33.8914 17.1426 33.8506 17.224 33.8301 17.2649C33.6773 18.2838 33.5143 19.3028 33.3512 20.3216C33.2901 20.5662 33.0965 20.7802 32.8316 20.8006C32.2916 20.821 31.7413 20.8107 31.1911 20.8107C30.9567 20.8107 30.7428 20.6579 30.6408 20.4541C30.539 20.2502 30.6 20.016 30.6307 19.7918C31.2624 15.8587 31.8839 11.9256 32.5055 7.99253V7.99253ZM60.8219 9.10319C60.8932 8.81779 61.1683 8.62426 61.4537 8.63439C61.8613 8.64464 62.279 8.62426 62.6967 8.64464C63.033 8.65478 63.2979 8.99105 63.2571 9.3171C63.196 9.89792 63.0533 10.4787 63.0126 11.0594C63.4099 11.0594 63.8175 11.0493 64.2149 11.0594C64.5716 11.0594 64.8671 11.4263 64.8059 11.7727C64.7549 12.0887 64.6836 12.3944 64.6326 12.7101C64.5817 12.9751 64.3576 13.1891 64.1029 13.2298C63.6137 13.2604 63.1349 13.2094 62.656 13.2604C62.4522 14.6257 62.228 15.991 62.014 17.3565C61.9834 17.6724 61.9631 18.0289 62.1465 18.3041C62.4216 18.6404 62.9004 18.518 63.2877 18.5589C63.5934 18.6505 63.787 18.9868 63.736 19.2926C63.685 19.6389 63.6749 19.9854 63.5934 20.3216C63.4711 20.6985 63.033 20.77 62.6967 20.8616C61.7694 21.1062 60.6995 21.1062 59.8743 20.5661C59.1101 20.0464 58.9878 19.0377 59.0693 18.1818C59.2832 16.5311 59.6196 14.8906 59.8029 13.2298C59.5176 13.2399 59.1712 13.2807 58.9572 13.0259C58.7127 12.7713 58.835 12.3942 58.8757 12.0783C58.9369 11.742 58.9266 11.3039 59.2935 11.1205C59.5889 11.0083 59.9253 11.09 60.2411 11.0492C60.4347 10.3972 60.6181 9.74508 60.8219 9.10319V9.10319ZM55.0649 12.4045C55.7068 11.7625 56.4811 11.2327 57.3676 10.9678C57.7548 10.7946 58.2541 11.1207 58.244 11.5486C58.1726 12.109 58.0402 12.6592 57.9484 13.2094C57.9076 13.4846 57.6733 13.7189 57.3981 13.7495C56.3996 13.9226 55.5335 14.5237 54.8407 15.2371C54.6675 15.4511 54.4127 15.6549 54.3821 15.9503C54.1682 17.3768 53.944 18.8034 53.7199 20.2299C53.6893 20.5355 53.4243 20.8311 53.1085 20.8107H51.5596C51.2031 20.8311 50.8872 20.4745 50.9279 20.1178C51.3763 17.2953 51.8247 14.4832 52.2628 11.6606C52.2832 11.3754 52.487 11.1002 52.7824 11.0697C53.1594 11.0493 53.5364 11.0594 53.9236 11.0594C54.2293 11.0594 54.5146 11.3346 54.5146 11.6505C54.5146 12.0886 54.4739 12.5369 54.4636 12.9852C54.7082 12.8325 54.8611 12.5879 55.0649 12.4045V12.4045ZM16.9769 11.1104C17.5271 10.9984 18.0977 11.0901 18.6479 11.0595C18.9639 11.0188 19.3001 11.2225 19.351 11.5384C19.3918 11.8237 19.3102 12.0988 19.2796 12.374C18.8619 14.9927 18.4441 17.6113 18.0365 20.23C18.006 20.5256 17.7615 20.821 17.4456 20.8108C16.8954 20.8108 16.3451 20.821 15.7848 20.8007C15.4383 20.7598 15.1835 20.3625 15.2753 20.0262C15.7134 17.3057 16.1312 14.5953 16.5694 11.8747C16.5898 11.5792 16.6713 11.2327 16.9769 11.1104V11.1104ZM49.9497 11.243C48.4315 10.9576 46.8828 10.7538 45.3441 10.9066C43.9686 11.0799 42.5828 11.7015 41.7372 12.8325C40.5654 14.3201 40.1679 16.3173 40.4328 18.1718C40.5755 19.0582 40.9627 19.9549 41.6862 20.5051C42.3586 21.0248 43.2655 21.096 44.0807 20.9636C45.2218 20.7394 46.1898 20.0059 46.9846 19.1907C47.0253 19.5371 46.9438 19.8836 46.9643 20.2198C46.9846 20.5356 47.2699 20.8311 47.5858 20.8107H48.6252C48.9308 20.8107 49.1856 20.5256 49.206 20.2299C49.6441 17.4686 50.0822 14.7175 50.5102 11.9664C50.5713 11.6199 50.2963 11.2837 49.9497 11.243V11.243ZM47.0866 16.0421C46.679 16.8063 46.1083 17.4992 45.4664 18.0901C45.0996 18.3958 44.6309 18.7117 44.1317 18.6099C43.6426 18.508 43.4082 17.9985 43.2961 17.5603C43.0414 16.4192 43.2758 15.176 43.9176 14.1877C44.2029 13.7291 44.6615 13.3827 45.1913 13.24C45.9351 13.0566 46.7198 13.1483 47.4433 13.3521L47.484 13.3929C47.3923 14.2793 47.219 15.1556 47.0866 16.0421V16.0421ZM29.948 14.5137C29.9378 13.4948 29.6627 12.4249 28.9495 11.6607C28.4604 11.1207 27.7267 10.8456 27.0135 10.8557C25.8315 10.815 24.7209 11.3958 23.8548 12.1701C23.6611 12.323 23.5287 12.5472 23.3148 12.6694C23.3148 12.3331 23.3453 11.9969 23.3351 11.6505C23.3453 11.3346 23.0498 11.0595 22.7441 11.0595H21.7048C21.3788 11.0595 21.1138 11.3448 21.0934 11.6606C20.4515 15.7364 19.7994 19.8122 19.1575 23.888C19.0658 24.2649 19.3919 24.6522 19.7791 24.642C20.3497 24.6318 20.9305 24.6827 21.4909 24.6011C21.9392 24.4788 21.929 23.9592 22.0004 23.5822C22.1633 22.6855 22.2755 21.7889 22.3774 20.882C24.3847 21.2692 26.718 21.0043 28.2159 19.486C29.4385 18.1513 30.0091 16.307 29.948 14.5137V14.5137ZM27.095 15.5428C27.0339 16.4803 26.6976 17.4279 26.0455 18.1105C25.1999 18.9155 23.9159 18.8034 22.8766 18.5284C22.8563 18.4977 22.8257 18.4366 22.8155 18.4061C22.9785 17.5196 23.06 16.6229 23.2638 15.7466C23.8345 14.8093 24.5273 13.8616 25.5156 13.342C25.8825 13.1688 26.3817 13.2095 26.6467 13.5458C27.095 14.1062 27.1358 14.8602 27.095 15.5428V15.5428Z" fill="#107BD4" stroke="#107BD4" stroke-width="0.101"/>
</g>
<defs>
<linearGradient id="paint0_linear" x1="86.7039" y1="4.45675" x2="86.7039" y2="26.3614" gradientUnits="userSpaceOnUse">
<stop stop-color="#F7E830"/>
<stop offset="1" stop-color="#FDCB06"/>
</linearGradient>
<radialGradient id="paint1_radial" cx="0" cy="0" r="1" gradientUnits="userSpaceOnUse" gradientTransform="translate(86.5896 14.4475) scale(17.8169)">
<stop offset="0.596" stop-color="#F29405"/>
<stop offset="0.736" stop-color="#F7D01E"/>
<stop offset="1" stop-color="#FDCB06"/>
</radialGradient>
<linearGradient id="paint2_linear" x1="92.7993" y1="5.24728" x2="92.8055" y2="6.28455" gradientUnits="userSpaceOnUse">
<stop stop-color="#FADA1C"/>
<stop offset="1" stop-color="#FDCB06"/>
</linearGradient>
<linearGradient id="paint3_linear" x1="80.5984" y1="5.19762" x2="80.5922" y2="6.2349" gradientUnits="userSpaceOnUse">
<stop stop-color="#FADA1C"/>
<stop offset="1" stop-color="#FDCB06"/>
</linearGradient>
<clipPath id="clip0">
<rect width="100" height="26.3631" fill="white"/>
</clipPath>
</defs>
</svg>
