<svg width="100" height="30" viewBox="0 0 100 30" fill="none" xmlns="http://www.w3.org/2000/svg">
<g clip-path="url(#clip0)">
<path d="M0.0117188 5.41528H3.49844V13.1618H10.8521V5.41528H14.3434V24.4305H10.8521V16.5213H3.49844V24.4305H0.0117188V5.41528ZM25.3893 18.237C25.3893 19.8288 24.0924 21.1241 22.501 21.1241C20.909 21.1241 19.6129 19.8288 19.6129 18.237V10.0502H16.3063V18.237C16.3063 21.6524 19.0854 24.4305 22.501 24.4305C25.9158 24.4305 28.6947 21.6524 28.6947 18.237V10.0502H25.3893V18.237ZM37.9256 10.1461C36.2854 10.1461 35.1404 10.6221 34.0348 11.7075V5.41528H30.7174V17.0764C30.7174 21.4413 33.8732 24.4305 37.4188 24.4305C41.3604 24.4305 44.8139 21.3879 44.8139 17.2885C44.8139 13.2411 41.6293 10.1461 37.9256 10.1461V10.1461ZM38.008 21.3616C35.7602 21.3616 34.0412 19.4842 34.0412 17.2885C34.0412 15.0924 35.7602 13.2145 38.008 13.2145C39.9127 13.2145 41.6326 15.0924 41.6326 17.2885C41.6326 19.4842 39.9127 21.3616 38.008 21.3616V21.3616ZM50.3856 10.9819C50.3856 9.31431 51.4967 8.7856 52.7131 8.7856C53.6924 8.7856 54.9883 9.52622 55.834 10.4258L58.0025 7.88657C56.9188 6.43188 54.7236 5.42642 52.9248 5.42642C49.327 5.42642 46.7346 7.51626 46.7346 10.9819C46.7346 17.4096 54.6441 15.3721 54.6441 18.9706C54.6441 20.0803 53.56 21.06 52.3174 21.06C50.3592 21.06 49.724 20.1077 48.825 19.1022L46.4174 21.5883C47.9525 23.4666 49.8564 24.4194 52.1316 24.4194C55.5438 24.4194 58.2949 22.3032 58.2949 18.9961C58.2949 11.8543 50.3856 14.0766 50.3856 10.9819V10.9819ZM67.0281 9.95981C63.483 9.95981 60.3268 12.9473 60.3268 17.3131V29.0043H63.6439V22.6823C64.7498 23.7668 65.8941 24.2436 67.535 24.2436C71.2385 24.2436 74.4234 21.1491 74.4234 17.1016C74.4234 13.0016 70.9689 9.95981 67.0281 9.95981V9.95981ZM67.6176 21.1756C65.3699 21.1756 63.6508 19.2958 63.6508 17.1016C63.6508 14.9055 65.3699 13.0276 67.6176 13.0276C69.5219 13.0276 71.242 14.9055 71.242 17.1016C71.242 19.2958 69.5219 21.1756 67.6176 21.1756V21.1756ZM98.8416 21.3616C96.885 21.3616 96.3295 20.5155 96.3295 19.2188V13.479H99.3709V10.5696H96.3295V6.73364L92.9711 8.24106V19.9331C92.9711 22.9225 95.0336 24.4305 97.8627 24.4305C98.2859 24.4305 98.8686 24.4032 99.1863 24.3249L100.006 21.3096C99.6361 21.3352 99.2131 21.3616 98.8416 21.3616" fill="#45535E"/>
<path d="M90.0934 13.6481C89.4574 12.554 88.5629 11.6768 87.4445 11.0165C86.6088 10.53 85.7422 10.2212 84.7656 10.0885V6.61199C85.7422 6.19734 86.3482 5.27957 86.3482 4.20886C86.3482 2.74949 85.1779 1.56687 83.7197 1.56687C82.2603 1.56687 81.0695 2.74949 81.0695 4.20886C81.0695 5.27957 81.6406 6.19734 82.6172 6.61199V10.0901C81.8359 10.203 81.0258 10.4466 80.2859 10.8208C78.7748 9.67312 73.8197 5.90808 70.9211 3.70906C70.9898 3.46121 71.0428 3.20574 71.0428 2.93621C71.0428 1.3198 69.7338 0.00964355 68.1168 0.00964355C66.4998 0.00964355 65.1914 1.3198 65.1914 2.93621C65.1914 4.55242 66.5012 5.86296 68.1182 5.86296C68.6697 5.86296 69.1799 5.70164 69.6201 5.4364L70.2318 5.90046L78.6373 11.9567C78.193 12.3647 77.7791 12.8288 77.448 13.3495C76.7771 14.411 76.3672 15.579 76.3672 16.853V17.1188C76.3672 18.0132 76.5371 18.8575 76.8266 19.6507C77.0814 20.3432 77.4541 20.9729 77.9156 21.5423L75.126 24.3387C74.7217 24.1883 74.2826 24.1574 73.8612 24.2498C73.4399 24.3422 73.054 24.554 72.7498 24.8598C72.5392 25.0694 72.3722 25.3187 72.2586 25.5933C72.1451 25.8679 72.0871 26.1623 72.0881 26.4594C72.0883 27.0636 72.3236 27.6313 72.751 28.0585C72.9604 28.2693 73.2096 28.4364 73.4842 28.5502C73.7587 28.664 74.053 28.7222 74.3502 28.7214C74.6474 28.7221 74.9419 28.6639 75.2165 28.5501C75.4911 28.4364 75.7404 28.2692 75.95 28.0585C76.1605 27.8489 76.3274 27.5997 76.441 27.3252C76.5547 27.0507 76.6128 26.7565 76.6121 26.4594C76.6121 26.2257 76.576 25.9975 76.508 25.7807L79.3914 22.8969C79.7867 23.17 80.2137 23.3999 80.6727 23.5981C81.5779 23.9895 82.5772 24.228 83.6707 24.228H83.8711C85.0801 24.228 86.2205 23.944 87.2926 23.3632C88.4223 22.7493 89.3064 21.9098 89.9744 20.8382C90.6459 19.7635 91.0156 18.5762 91.0156 17.27V17.2048C91.0156 15.9198 90.7182 14.7343 90.0934 13.6481V13.6481ZM86.5703 19.6975C85.7877 20.5673 84.8881 21.103 83.8711 21.103H83.7035C83.1227 21.103 82.5545 20.9425 81.9982 20.6505C81.3713 20.329 80.8947 19.8704 80.5047 19.2897C80.1016 18.7198 79.8828 18.0975 79.8828 17.4378V17.2374C79.8828 16.5887 80.0072 15.9737 80.3209 15.3928C80.6563 14.7579 81.1092 14.2641 81.7115 13.8716C82.3029 13.4817 82.9346 13.2905 83.6381 13.2905H83.7035C84.3414 13.2905 84.9453 13.4163 85.5152 13.7079C86.0959 14.0188 86.5703 14.4436 86.9381 15.0024C87.2953 15.5614 87.5078 16.1643 87.5762 16.8212C87.5869 16.9577 87.5924 17.0975 87.5924 17.2311C87.5924 18.1225 87.2518 18.9481 86.5703 19.6975Z" fill="#F8761F"/>
</g>
<defs>
<clipPath id="clip0">
<rect width="100" height="29.12" fill="white"/>
</clipPath>
</defs>
</svg>
