<svg width="100" height="27" viewBox="0 0 100 27" fill="none" xmlns="http://www.w3.org/2000/svg">
<g clip-path="url(#clip0)">
<path d="M73.6725 1.89689C73.6725 0.849813 74.5435 0 75.6173 0H98.041C99.1151 0 99.9858 0.849813 99.9858 1.89689V24.5835C99.9858 25.6309 99.1151 26.48 98.041 26.48H75.6173C74.5435 26.48 73.6725 25.6309 73.6725 24.5838V1.89654V1.89689Z" fill="#006699"/>
<path d="M0.0135498 22.181H10.9948V18.5754H3.98826V4.82108H0.0135498V22.181ZM16.5545 22.181V10.2238H12.5802V22.181H16.5545ZM14.5677 8.59158C15.9534 8.59158 16.816 7.67335 16.816 6.52522C16.7903 5.35208 15.9534 4.4599 14.5941 4.4599C13.2344 4.4599 12.3454 5.35243 12.3454 6.52522C12.3454 7.67335 13.2081 8.59158 14.5416 8.59158H14.5677V8.59158ZM18.3997 22.181H22.374V15.5033C22.374 15.1459 22.3997 14.7886 22.5049 14.534C22.7918 13.82 23.4458 13.0803 24.5439 13.0803C25.9823 13.0803 26.5578 14.177 26.5578 15.7836V22.1806H30.5315V15.3248C30.5315 11.6519 28.5707 9.94288 25.9556 9.94288C23.8118 9.94288 22.8703 11.1414 22.3473 11.9578H22.374V10.2238H18.3997C18.4521 11.3459 18.3997 22.181 18.3997 22.181V22.181ZM36.1384 4.82108H32.1641V22.181H36.1384V18.3042L37.1317 17.0536L40.2434 22.181H45.1325L39.9037 14.7584L44.4789 9.70881H39.6947C39.6947 9.70881 36.4263 14.2263 36.1384 14.7625V4.82108Z" fill="black"/>
<path d="M55.7606 17.1932C55.8131 16.8862 55.8916 16.2972 55.8916 15.6311C55.8916 12.5402 54.3225 9.4021 50.1915 9.4021C45.7727 9.4021 43.733 12.8969 43.733 16.0666C43.733 19.9867 46.2172 22.4348 50.5572 22.4348C52.2833 22.4348 53.8776 22.1806 55.1855 21.6447L54.6625 19.0199C53.5901 19.3755 52.492 19.5537 51.1327 19.5537C49.2764 19.5537 47.6556 18.7914 47.5247 17.1675L55.7606 17.1925V17.1932V17.1932ZM47.4987 14.5045C47.6032 13.4841 48.2835 11.9786 49.9828 11.9786C51.7866 11.9786 52.2055 13.5859 52.2055 14.5045H47.499H47.4987ZM65.7014 4.82103V10.8305H65.649C65.0735 9.98936 63.8709 9.42815 62.2768 9.42815C59.2172 9.42815 56.5243 11.8765 56.55 16.0593C56.55 19.9364 58.9821 22.4615 62.0146 22.4615C63.6621 22.4615 65.2305 21.7468 66.0154 20.3695H66.0935L66.2508 22.1809H69.7803C69.7282 21.3391 69.6754 19.8853 69.6754 18.4569V4.82068H65.7011L65.7014 4.82103ZM65.7014 16.6462C65.7014 16.9518 65.6754 17.2584 65.6226 17.5127C65.3882 18.6101 64.4467 19.3745 63.2961 19.3745C61.6493 19.3745 60.5768 18.0485 60.5768 15.9572C60.5768 13.9936 61.4926 12.412 63.3225 12.412C64.5512 12.412 65.4138 13.2535 65.6493 14.2989C65.7014 14.5291 65.7014 14.7844 65.7014 15.0136V16.6458V16.6462Z" fill="black"/>
<path d="M81.6488 22.1664V10.2092H77.6745V22.1664H81.6492H81.6488ZM79.6624 8.577C81.048 8.577 81.9107 7.65877 81.9107 6.51133C81.8846 5.33784 81.048 4.44531 79.6887 4.44531C78.3284 4.44531 77.4401 5.33784 77.4401 6.51133C77.4401 7.65877 78.3024 8.577 79.6363 8.577H79.662H79.6624ZM83.8486 22.1664H87.8226V15.4898C87.8226 15.1327 87.8486 14.775 87.9535 14.5201C88.2407 13.8058 88.8946 13.0664 89.9928 13.0664C91.4305 13.0664 92.006 14.1628 92.006 15.7704V22.1664H95.98V15.3106C95.98 11.638 94.0196 9.92899 91.4048 9.92899C89.261 9.92899 88.3195 11.1271 87.7965 11.9433H87.8229V10.2096H83.8489C83.9006 11.3313 83.8486 22.1667 83.8486 22.1667V22.1664Z" fill="white"/>
</g>
<defs>
<clipPath id="clip0">
<rect width="100" height="26.48" fill="white"/>
</clipPath>
</defs>
</svg>
